<?xml version="1.0" standalone="no"?>
<!DOCTYPE svg PUBLIC "-//W3C//DTD SVG 20010904//EN"
 "http://www.w3.org/TR/2001/REC-SVG-20010904/DTD/svg10.dtd">
<svg version="1.0" xmlns="http://www.w3.org/2000/svg"
 width="1705.000000pt" height="1705.000000pt" viewBox="0 0 1705.000000 1705.000000"
 preserveAspectRatio="xMidYMid meet">
<metadata>
Created by potrace 1.14, written by Peter Selinger 2001-2017
</metadata>
<g transform="translate(0.000000,1705.000000) scale(0.100000,-0.100000)"
fill="#000000" stroke="none">
<path d="M12175 16733 c-33 -20 -62 -39 -65 -42 -3 -4 -30 -24 -60 -46 -30
-21 -93 -78 -140 -126 -92 -94 -90 -91 -146 -170 -21 -30 -42 -56 -46 -57 -5
-2 -6 -8 -2 -13 3 -5 1 -9 -4 -9 -4 0 -14 -16 -22 -35 -8 -19 -17 -35 -22 -35
-4 0 -7 -3 -6 -7 1 -5 -7 -26 -19 -48 -11 -22 -22 -43 -22 -47 -1 -4 -9 -24
-17 -44 -9 -20 -16 -45 -17 -55 -1 -11 -4 -19 -8 -19 -6 0 -11 -18 -24 -94 -2
-16 -6 -31 -9 -33 -5 -5 -67 57 -159 160 -63 71 -203 187 -225 187 -6 0 -12 4
-14 9 -4 11 -202 111 -221 111 -7 0 -17 4 -22 9 -9 7 -62 25 -205 67 -14 4
-32 9 -40 10 -8 1 -26 5 -40 9 -14 4 -38 8 -53 11 -16 2 -33 7 -38 10 -6 3
-27 8 -47 10 -20 2 -50 6 -67 9 -60 9 -91 14 -140 19 -89 11 -106 13 -111 19
-3 3 -19 1 -35 -3 -16 -5 -29 -6 -29 -2 0 4 -19 8 -43 9 -252 9 -362 15 -369
19 -4 3 -8 -1 -8 -8 0 -10 -2 -10 -9 0 -4 8 -11 13 -14 12 -4 -1 -20 -5 -37
-10 -17 -5 -32 -5 -35 0 -3 5 -15 6 -29 0 -12 -4 -29 -4 -36 0 -8 5 -22 4 -31
-1 -12 -6 -20 -5 -24 1 -4 6 -10 8 -15 5 -4 -3 -75 -7 -156 -10 -82 -3 -152
-10 -156 -15 -5 -5 -6 -8 -3 -6 3 2 27 -1 53 -6 26 -5 58 -11 72 -13 47 -8 55
-11 68 -18 6 -5 12 -6 12 -4 0 3 37 -6 83 -20 45 -13 89 -26 97 -28 15 -3 114
-39 160 -58 14 -6 27 -11 30 -12 3 -1 18 -7 33 -13 16 -7 33 -12 38 -12 5 0 9
-5 9 -10 0 -6 3 -9 8 -8 9 3 142 -61 162 -78 8 -7 19 -13 23 -13 4 0 38 -19
75 -43 37 -24 72 -45 77 -47 17 -7 120 -84 123 -93 2 -4 8 -8 14 -8 9 0 79
-54 138 -107 14 -13 28 -23 32 -23 5 0 8 -7 8 -16 0 -8 -4 -13 -9 -10 -9 6
-140 15 -303 21 -60 2 -112 6 -116 9 -4 2 -14 1 -21 -4 -8 -4 -26 -4 -42 0
-15 5 -30 6 -32 4 -3 -3 -81 -7 -173 -10 -227 -7 -238 -7 -246 -19 -5 -6 -8
-5 -8 2 0 7 -6 10 -12 8 -7 -3 -38 -7 -68 -10 -128 -12 -225 -24 -250 -30 -8
-2 -37 -7 -65 -11 -27 -3 -53 -8 -56 -10 -3 -1 -28 -6 -55 -10 -27 -3 -57 -11
-67 -16 -10 -5 -25 -7 -33 -4 -8 3 -14 1 -14 -4 0 -6 -3 -9 -7 -8 -12 3 -153
-33 -190 -49 -18 -7 -35 -13 -38 -13 -9 -1 -70 -22 -120 -41 -16 -7 -32 -13
-35 -14 -3 -1 -22 -9 -44 -18 -21 -9 -42 -17 -47 -17 -5 0 -9 -4 -9 -9 0 -5
-11 -12 -24 -15 -55 -14 -316 -186 -316 -208 0 -5 12 -6 28 -3 115 23 341 38
557 38 187 0 273 -6 450 -28 28 -4 59 -8 71 -9 11 -1 24 -4 30 -7 5 -2 20 -4
34 -4 14 0 27 -3 30 -6 3 -4 25 -9 50 -12 25 -4 57 -9 72 -12 16 -3 40 -7 55
-10 16 -2 42 -6 58 -9 17 -3 39 -7 50 -9 11 -1 25 -5 30 -8 10 -5 46 -10 92
-13 11 0 19 -4 16 -8 -2 -5 11 -8 29 -8 19 0 40 -6 47 -12 11 -11 12 -10 6 1
-6 10 -4 12 6 5 8 -4 21 -10 29 -11 34 -5 65 -12 65 -13 0 -1 14 -4 30 -6 54
-8 75 -14 75 -23 0 -5 -8 -8 -17 -6 -10 1 -22 0 -28 -4 -5 -3 -14 -6 -20 -8
-36 -8 -53 -12 -77 -22 -16 -6 -28 -8 -28 -6 0 2 -12 0 -27 -6 -16 -6 -35 -12
-43 -14 -31 -6 -234 -86 -247 -96 -7 -6 -13 -9 -13 -5 0 3 -24 -6 -52 -21 -29
-15 -55 -27 -58 -28 -3 0 -14 -5 -25 -11 -13 -7 -214 -10 -584 -9 -528 1 -566
0 -582 -16 -17 -17 -18 -17 -24 0 -5 17 -30 18 -383 20 -207 1 -384 2 -392 2
-8 0 -34 -1 -56 -1 -23 -1 -46 0 -50 1 -50 9 -68 -12 -78 -88 -26 -218 -27
-219 -78 -214 -10 1 -18 -1 -19 -6 0 -4 -2 -17 -4 -28 -2 -11 -7 -43 -10 -72
-3 -28 -7 -58 -9 -65 -3 -7 -7 -38 -11 -68 -3 -30 -10 -82 -15 -115 -5 -33
-12 -84 -15 -114 -4 -30 -8 -62 -10 -71 -3 -15 -12 -87 -20 -170 -3 -19 -7
-53 -9 -75 -3 -22 -8 -66 -11 -98 -4 -32 -8 -66 -10 -76 -2 -10 -6 -58 -10
-107 -7 -92 -20 -132 -21 -66 -1 20 -4 69 -7 107 -4 39 -9 106 -12 150 -11
151 -23 291 -30 365 -2 25 -7 81 -10 125 -3 44 -8 105 -11 135 -3 30 -7 82 -9
115 -8 108 -20 239 -31 345 -7 71 -28 90 -103 91 -442 4 -915 -1 -924 -10 -11
-11 -13 -19 -22 -86 -7 -58 -16 -117 -20 -140 -2 -11 -4 -30 -4 -42 -1 -19 -7
-23 -36 -23 -19 0 -35 -3 -36 -7 0 -5 -2 -17 -5 -28 -2 -11 -6 -40 -9 -65 -4
-25 -8 -55 -10 -66 -2 -12 -6 -48 -10 -80 -4 -33 -8 -69 -10 -80 -2 -12 -7
-48 -10 -80 -4 -33 -9 -68 -11 -79 -3 -11 -7 -45 -10 -75 -2 -30 -7 -62 -9
-70 -2 -8 -7 -46 -11 -85 -3 -38 -8 -78 -9 -87 -2 -9 -7 -48 -10 -85 -4 -37
-9 -71 -11 -74 -3 -5 -16 -151 -17 -186 0 -7 -3 -10 -7 -8 -4 2 -8 28 -9 57
-1 29 -4 69 -6 88 -2 19 -6 78 -9 130 -4 52 -8 115 -11 140 -3 25 -7 81 -10
125 -3 44 -7 107 -10 140 -2 33 -7 89 -9 125 -3 36 -8 103 -12 150 -7 97 -9
127 -18 265 -13 188 -14 194 -35 216 -21 22 -21 22 -463 23 -244 1 -453 0
-466 -2 -22 -4 -23 -7 -18 -76 3 -39 8 -87 11 -106 2 -19 7 -53 10 -76 l5 -41
-67 1 c-61 0 -68 -2 -67 -19 3 -40 15 -161 19 -185 2 -14 7 -52 10 -85 4 -33
9 -73 11 -90 2 -16 6 -59 10 -95 3 -36 8 -74 10 -85 2 -11 7 -42 9 -70 3 -27
7 -70 10 -95 3 -25 8 -65 10 -90 2 -25 7 -61 10 -80 3 -19 7 -60 10 -90 4 -30
8 -66 10 -80 2 -14 6 -56 10 -95 3 -38 8 -83 11 -99 3 -15 7 -51 10 -80 11
-115 13 -132 19 -166 3 -19 7 -57 10 -85 2 -27 6 -61 9 -75 3 -14 8 -54 11
-90 3 -36 7 -78 9 -95 2 -16 7 -55 10 -86 3 -31 7 -69 10 -85 2 -16 7 -60 11
-97 3 -37 8 -78 11 -90 2 -12 6 -49 9 -82 6 -65 12 -121 19 -169 2 -17 7 -62
11 -101 4 -38 8 -81 10 -95 9 -62 15 -109 20 -160 3 -30 7 -71 9 -90 3 -19 7
-60 11 -91 3 -31 7 -65 9 -76 2 -10 7 -50 10 -88 4 -39 9 -83 12 -100 2 -16 6
-48 8 -70 12 -121 17 -162 21 -182 l5 -23 278 0 c152 -1 407 -2 566 -2 l290
-2 7 28 c4 15 10 49 13 74 7 65 17 126 22 131 2 2 29 5 61 6 47 2 60 6 72 25
8 12 16 28 17 34 1 6 4 27 7 46 3 19 13 88 22 152 9 65 18 125 19 135 4 20 15
99 22 153 4 40 14 105 20 135 3 11 6 40 9 65 3 25 7 56 9 70 3 14 8 48 12 75
3 28 8 59 9 70 2 11 4 34 5 50 2 29 19 -57 35 -175 4 -30 8 -64 10 -75 2 -11
6 -40 9 -65 4 -25 8 -56 11 -70 3 -14 7 -44 10 -68 3 -24 7 -53 10 -65 2 -12
7 -40 10 -62 6 -47 13 -88 20 -130 3 -16 13 -70 21 -120 8 -49 16 -99 18 -110
2 -11 7 -38 11 -60 3 -22 12 -71 20 -110 7 -38 16 -86 19 -105 l6 -35 575 0
c508 0 575 1 576 15 0 8 2 24 4 35 1 11 6 54 10 95 4 41 9 78 12 83 2 4 28 7
57 7 36 0 61 6 75 18 22 17 25 27 35 117 4 28 8 68 11 90 3 22 7 58 10 80 2
22 7 60 10 85 3 25 12 104 20 175 8 72 18 153 21 180 3 28 7 61 9 75 2 14 7
54 10 90 3 36 8 76 10 90 2 14 7 50 10 80 3 30 8 66 10 80 2 14 6 52 10 85 6
67 15 137 20 175 2 14 7 52 10 85 6 58 10 93 20 165 4 36 15 131 20 185 2 17
6 50 9 75 3 25 8 65 11 90 3 25 7 61 10 80 2 19 7 60 10 91 3 31 8 66 10 78 2
12 7 54 10 93 4 40 8 75 10 78 2 4 5 30 6 59 2 28 5 54 9 56 3 2 5 -625 5
-1393 l0 -1397 600 -2 c330 -1 609 -2 620 -3 11 0 27 0 35 1 25 1 222 -1 239
-3 3 0 26 0 51 1 l45 1 -1 118 -1 117 74 1 c42 1 79 6 86 13 8 8 12 111 13
369 0 302 -2 360 -14 375 -14 16 -43 17 -339 17 l-324 0 3 238 3 237 200 0
200 0 0 118 0 117 72 0 c48 0 76 5 86 14 10 11 13 44 12 137 -1 87 3 133 13
152 20 43 274 293 387 383 28 21 52 42 53 47 2 4 8 7 14 7 5 0 16 7 25 16 21
20 156 112 185 124 13 6 46 24 73 41 63 38 266 139 280 139 5 0 10 -22 10 -50
0 -27 -2 -50 -5 -50 -4 0 -5 -121 -1 -142 0 -4 23 4 50 17 27 14 54 25 60 25
6 0 11 4 11 9 0 5 10 13 23 17 12 4 133 62 270 130 136 68 247 120 247 115 0
-5 -12 -44 -26 -87 -14 -44 -27 -85 -29 -92 -3 -7 -5 -14 -5 -17 0 -3 -6 -21
-14 -40 -9 -20 -15 -38 -15 -40 -1 -15 -15 -61 -21 -70 -7 -9 -21 -56 -25 -80
0 -5 -7 -23 -13 -39 -7 -16 -14 -36 -16 -45 -2 -9 -6 -24 -10 -33 -4 -9 -9
-22 -10 -30 -2 -7 -8 -24 -13 -38 -6 -14 -9 -28 -6 -32 2 -5 -1 -8 -8 -8 -7 0
-10 -3 -6 -6 3 -4 0 -21 -8 -39 -7 -19 -11 -36 -7 -39 3 -3 -1 -6 -8 -6 -7 0
-11 -3 -7 -6 3 -3 -1 -25 -10 -47 -8 -23 -16 -49 -18 -57 -2 -8 -4 -16 -5 -17
-2 -2 -3 -6 -5 -10 -1 -5 -4 -15 -8 -23 -3 -8 -36 -107 -74 -220 -37 -113 -72
-208 -78 -212 -5 -4 -7 -8 -2 -8 4 0 1 -16 -7 -35 -9 -20 -15 -37 -16 -40 0
-3 -3 -10 -5 -17 -2 -7 -23 -67 -45 -133 -22 -66 -43 -127 -47 -135 -3 -8 -7
-17 -8 -20 0 -3 -11 -34 -23 -70 -12 -36 -22 -69 -23 -75 0 -5 -5 -15 -10 -21
-5 -7 -11 -20 -13 -30 -2 -11 -16 -49 -30 -86 -14 -38 -23 -68 -19 -68 3 0 1
-6 -4 -12 -5 -7 -20 -42 -33 -78 -13 -36 -28 -76 -33 -90 -6 -14 -11 -29 -13
-35 -4 -16 -69 -192 -114 -310 -23 -60 -43 -114 -44 -120 -1 -5 -9 -25 -19
-44 -9 -19 -17 -40 -17 -48 0 -7 -4 -21 -10 -31 -5 -9 -30 -71 -55 -137 -25
-66 -50 -129 -55 -140 -5 -11 -32 -78 -61 -150 -28 -71 -57 -143 -64 -160 -44
-98 -119 -275 -129 -302 -7 -18 -15 -35 -19 -39 -3 -3 -366 -6 -806 -6 -589 0
-804 -3 -815 -11 -10 -8 -18 -37 -22 -87 -4 -41 -8 -84 -9 -95 -1 -11 -3 -25
-4 -30 0 -6 -11 -11 -22 -12 -12 -1 -23 -4 -25 -6 -7 -7 -17 -94 -29 -247 -3
-35 -7 -76 -10 -90 -2 -14 -7 -59 -10 -100 -4 -41 -9 -93 -11 -115 -2 -22 -6
-65 -9 -95 -6 -70 -15 -156 -20 -195 -2 -16 -7 -67 -10 -111 -3 -45 -7 -90 -9
-101 -2 -11 -7 -60 -11 -109 -4 -49 -9 -109 -11 -134 -2 -25 -6 -67 -8 -93 -5
-60 -16 -74 -17 -21 0 21 -2 55 -4 74 -2 19 -7 67 -9 105 -3 39 -8 79 -10 90
-2 11 -7 61 -11 110 -3 50 -8 101 -10 115 -2 14 -6 54 -9 90 -4 36 -8 75 -10
86 -2 11 -7 56 -11 100 -3 43 -8 90 -10 104 -2 14 -6 55 -10 91 -3 36 -7 76
-10 90 -2 13 -7 56 -10 94 -4 39 -9 82 -11 98 -1 15 -5 51 -8 80 -3 28 -8 68
-10 87 -2 19 -7 62 -11 95 -10 99 -15 119 -31 132 -25 18 -983 16 -1004 -3
-14 -12 -14 -23 1 -111 9 -54 14 -101 12 -105 -2 -4 -21 -7 -42 -6 -43 1 -62
-7 -56 -25 5 -15 13 -58 21 -117 3 -25 9 -62 14 -82 11 -53 -1 -47 -29 15 -80
173 -239 326 -425 412 -92 43 -238 84 -361 101 -121 17 -402 6 -515 -21 -14
-3 -36 -8 -50 -11 -42 -9 -158 -52 -222 -84 -121 -60 -249 -167 -313 -261 -16
-24 -32 -46 -35 -49 -26 -24 -104 -212 -116 -279 -3 -13 -13 -40 -23 -60 -22
-43 -57 -167 -65 -231 -17 -130 -21 -327 -21 -1073 0 -810 0 -817 -20 -818
-25 -1 -396 -1 -412 0 -9 1 -12 321 -12 1397 0 994 -3 1399 -11 1409 -9 10
-104 13 -480 13 -423 0 -470 -2 -483 -16 -10 -13 -13 -44 -13 -119 1 -66 -2
-102 -9 -102 -5 1 -22 1 -36 0 l-25 -1 0 -1762 1 -1763 738 -2 737 -2 0 84 c0
69 3 85 15 86 8 0 34 1 58 1 59 1 67 10 66 82 -1 33 -1 81 0 105 l1 44 41 -61
c46 -68 133 -162 194 -208 128 -98 322 -169 525 -194 64 -8 326 -6 385 3 17 2
53 8 80 12 118 18 293 89 405 165 70 48 176 159 220 230 18 30 43 66 55 80 29
32 95 128 95 137 0 3 6 14 14 22 33 39 90 215 102 319 12 102 13 114 20 312 7
210 8 1443 1 1498 -3 19 -1 30 3 25 5 -4 11 -30 14 -58 3 -27 7 -59 10 -70 6
-31 18 -117 22 -152 1 -17 7 -57 13 -90 5 -32 12 -74 15 -93 13 -93 19 -137
22 -155 3 -11 9 -51 15 -90 6 -38 15 -99 20 -135 6 -36 12 -78 14 -95 9 -62
27 -181 32 -210 2 -16 7 -43 9 -60 2 -16 6 -41 8 -55 2 -14 7 -45 10 -70 3
-25 8 -56 11 -70 3 -14 8 -45 10 -70 3 -25 10 -67 15 -95 10 -56 22 -139 25
-170 1 -11 5 -33 8 -50 4 -16 9 -48 12 -70 8 -62 16 -119 35 -235 5 -30 12
-77 15 -105 3 -27 8 -57 10 -65 2 -8 6 -35 9 -60 4 -25 8 -56 10 -70 6 -30 15
-92 22 -140 2 -19 10 -73 17 -120 l12 -85 696 -2 696 -3 12 85 c14 90 13 89
73 85 27 -1 51 14 55 35 0 6 4 35 8 65 3 30 8 62 10 70 2 8 7 40 10 70 3 30 8
66 10 80 6 37 14 100 20 144 2 21 7 55 9 75 6 39 13 98 21 164 6 47 16 112 21
140 2 10 6 48 10 85 3 37 8 70 9 73 2 3 7 37 10 75 4 38 9 72 11 75 2 3 6 30
9 60 3 30 7 70 10 89 2 19 7 60 10 90 4 30 8 62 10 70 3 8 7 38 10 65 3 28 8
61 10 75 3 14 7 48 11 75 3 28 7 61 9 75 2 14 7 49 10 79 4 30 8 63 10 73 2
11 7 46 10 79 4 33 8 70 11 82 2 12 6 42 9 67 5 46 13 103 21 154 3 16 7 48 9
70 2 23 8 70 14 106 6 36 13 88 16 115 6 58 10 91 21 160 4 28 7 58 6 67 0 10
2 20 6 22 4 2 7 -665 7 -1482 -1 -818 1 -1492 3 -1499 3 -9 186 -12 799 -12
l794 1 -3 84 c-2 69 0 84 12 85 66 2 112 7 118 13 10 10 10 733 0 749 -5 9
-82 12 -315 14 -169 1 -317 2 -329 2 -21 1 -21 3 -20 268 l1 268 215 0 215 0
1 78 c0 42 4 80 8 85 4 4 29 7 56 7 26 1 54 6 62 12 11 10 14 75 13 357 0 222
-4 349 -10 355 -7 7 -114 12 -285 13 l-275 3 -2 213 -1 212 46 1 c26 0 133 1
237 2 l190 2 2 65 c0 36 2 74 2 85 1 18 7 20 55 19 30 -1 60 3 68 7 20 13 19
746 -2 759 -7 4 -65 8 -127 9 -62 0 -117 2 -121 5 -5 3 3 40 18 83 14 43 27
83 28 88 2 6 8 28 14 50 6 22 12 45 14 50 1 6 21 73 44 150 23 76 43 144 45
150 3 17 36 129 42 145 3 8 7 21 9 29 1 8 9 35 17 60 8 25 18 60 23 76 4 17 8
32 9 35 1 3 8 25 15 50 7 25 14 47 15 50 3 21 28 109 35 125 5 11 13 40 20 65
6 25 16 61 21 80 5 19 12 46 15 59 3 14 7 28 10 33 3 4 7 16 9 25 2 10 13 52
25 93 11 41 23 82 25 90 1 8 8 35 15 60 7 25 12 46 11 47 0 2 6 21 14 43 8 22
14 41 14 43 0 1 2 14 6 28 3 14 7 33 9 42 1 9 5 20 9 23 4 4 7 19 7 34 0 15 3
30 7 34 4 3 8 17 10 29 2 12 6 29 10 37 3 8 8 23 9 32 2 10 22 89 45 175 50
193 49 190 56 233 3 19 10 41 15 48 6 6 8 12 5 12 -3 0 -1 15 4 33 5 17 12 48
15 67 3 19 9 37 13 40 3 3 6 14 5 25 0 11 2 25 5 30 3 6 6 16 8 24 1 7 7 34
13 60 12 51 19 83 26 121 2 14 7 39 11 55 4 17 7 32 8 35 6 29 18 90 22 110 8
41 11 55 13 55 1 0 3 14 4 30 2 17 6 44 9 60 4 17 9 48 12 70 3 23 7 52 10 65
17 87 25 291 14 333 -10 36 0 34 50 -10 218 -191 421 -433 445 -528 l8 -30 34
39 c52 60 95 144 97 187 2 40 13 51 23 24 4 -8 10 -15 15 -15 4 0 30 -23 56
-52 26 -28 55 -59 63 -68 85 -90 220 -318 255 -430 9 -30 25 -89 28 -105 2
-11 7 -27 10 -35 7 -18 20 -78 31 -135 1 -5 4 -14 7 -20 4 -5 5 -20 4 -32 -1
-13 2 -23 7 -23 5 0 8 -6 7 -12 -2 -12 5 -52 18 -113 5 -23 6 -25 28 -160 18
-108 22 -134 31 -210 3 -27 7 -51 9 -53 3 -4 38 31 63 63 45 58 156 255 144
255 -4 0 -2 4 3 8 16 11 105 237 105 265 0 4 6 20 14 36 9 16 12 31 9 34 -3 4
0 13 7 22 7 8 10 15 7 15 -3 0 -1 17 5 38 5 20 11 53 14 72 3 19 9 49 13 65 4
17 7 42 6 58 -1 15 1 27 4 27 15 0 -3 333 -19 353 -1 1 -3 10 -6 20 -2 9 -6
23 -7 30 -2 6 -7 26 -12 42 -4 17 -18 51 -31 77 -15 33 -19 50 -11 55 6 3 13
1 15 -5 2 -7 10 -12 17 -12 7 0 46 -17 86 -37 41 -20 76 -37 79 -38 18 -2 207
-102 213 -112 4 -7 13 -13 19 -13 6 0 44 -20 86 -45 41 -25 78 -45 83 -45 5 0
9 -4 9 -8 0 -5 12 -14 28 -21 35 -17 236 -152 240 -163 2 -4 8 -8 13 -8 6 0
15 -5 22 -10 7 -6 48 -38 92 -71 134 -101 275 -221 390 -331 57 -55 71 -64 76
-50 4 9 2 23 -3 30 -7 8 -7 12 1 12 7 0 10 4 7 8 -3 5 -8 23 -11 40 -16 93
-69 285 -95 347 -4 11 -24 61 -43 110 -20 50 -48 117 -63 150 -15 33 -28 62
-29 65 0 3 -13 31 -29 62 -15 32 -27 60 -26 64 1 4 -2 10 -7 13 -4 3 -23 35
-42 71 -50 96 -115 205 -123 208 -5 2 -8 8 -8 14 0 11 -121 191 -132 196 -5 2
-8 8 -8 14 0 5 -6 15 -12 22 -7 7 -29 33 -48 57 -75 92 -262 269 -287 269 -4
0 -19 10 -33 21 -14 11 -19 18 -12 14 8 -4 34 -9 57 -10 24 -2 48 -6 52 -8 5
-3 28 -8 52 -12 24 -3 53 -10 66 -15 13 -5 25 -7 27 -4 3 2 24 -2 47 -10 23
-9 44 -15 46 -15 30 2 115 -16 115 -24 0 -6 2 -8 6 -5 3 3 22 2 42 -3 20 -6
47 -12 60 -14 56 -12 72 -16 147 -35 44 -11 89 -23 100 -26 11 -3 31 -7 45
-10 14 -3 32 -7 40 -9 8 -2 15 -4 15 -5 0 -1 7 -3 15 -5 8 -1 35 -8 60 -16 25
-7 50 -13 55 -14 6 -2 44 -13 85 -25 41 -12 80 -23 85 -24 6 -1 16 -5 23 -9 6
-5 12 -6 12 -3 0 3 26 -4 58 -15 31 -11 65 -22 75 -24 9 -2 22 -7 27 -10 5 -3
18 -8 27 -10 36 -8 157 -55 171 -68 8 -6 18 -11 21 -10 13 5 51 -10 51 -20 0
-6 3 -7 6 -4 4 4 20 -3 35 -14 16 -11 29 -17 29 -12 0 4 5 1 10 -7 6 -9 10
-10 10 -3 0 6 -6 18 -12 25 -7 7 -31 36 -52 63 -22 28 -46 57 -53 65 -7 8 -30
35 -51 60 -91 110 -302 310 -442 420 -88 69 -94 74 -112 85 -8 6 -56 38 -107
73 -51 34 -95 62 -98 62 -3 0 -17 8 -31 19 -36 25 -257 144 -272 146 -3 1 -25
10 -50 22 -100 47 -163 73 -176 73 -8 0 -14 4 -14 8 0 5 -6 9 -12 9 -7 0 -59
17 -116 36 -56 20 -106 37 -110 38 -10 2 -20 5 -67 17 -40 11 -97 21 -147 26
-67 6 -38 14 152 42 19 3 73 11 120 19 47 8 108 17 135 20 28 3 59 8 70 10 11
2 45 7 75 10 79 9 115 13 115 15 0 1 25 3 55 5 97 7 175 14 175 15 0 11 453
17 517 8 25 -4 35 -2 32 6 -6 13 -99 76 -113 76 -5 0 -11 3 -13 8 -5 12 -114
73 -223 126 -55 27 -112 55 -126 62 -14 7 -29 11 -33 7 -3 -3 -6 -2 -6 4 0 6
-10 13 -22 16 -13 3 -68 21 -123 41 -55 20 -108 36 -117 36 -10 0 -18 5 -18
11 0 5 -3 8 -8 5 -4 -2 -50 6 -102 19 -52 12 -113 25 -135 29 -22 3 -51 8 -65
10 -82 14 -164 20 -315 21 -93 1 -174 0 -179 -3 -5 -3 -34 -6 -65 -8 -31 -1
-69 -5 -86 -9 -16 -3 -48 -8 -70 -10 -22 -2 -53 -6 -70 -9 -16 -2 -48 -7 -70
-11 -22 -3 -48 -8 -57 -11 -29 -8 -62 -15 -89 -18 -14 -2 -30 -6 -36 -9 -5 -3
-20 -8 -34 -11 -13 -3 -58 -15 -99 -26 -41 -12 -79 -23 -85 -24 -5 -2 -21 -8
-35 -14 -82 -35 -93 -36 -85 -4 29 111 39 367 21 492 -5 30 -9 61 -9 68 0 6
-3 12 -7 12 -3 0 -6 8 -7 18 -5 57 -44 173 -94 277 -33 71 -110 195 -119 194
-3 0 -32 -17 -65 -36z m-2191 -2490 c-24 -19 -44 -39 -44 -45 0 -6 -3 -9 -6
-5 -8 7 -194 -183 -194 -199 0 -4 -7 -14 -35 -47 -42 -48 -131 -203 -127 -219
1 -5 -2 -8 -8 -8 -6 0 -9 -3 -8 -7 1 -5 -8 -30 -20 -57 -12 -27 -22 -52 -22
-57 0 -9 -17 -10 -125 -10 -30 0 -102 0 -159 0 l-103 1 1 183 1 182 220 0 220
0 0 118 0 117 35 1 c19 1 51 0 71 -1 34 -1 69 19 69 40 0 4 12 11 28 15 27 8
39 10 102 19 19 2 35 5 35 6 0 1 11 4 25 6 48 7 59 10 67 17 3 4 10 2 14 -5 5
-7 -9 -24 -37 -45z m-567 -4265 c-3 -8 -6 -5 -6 6 -1 11 2 17 5 13 3 -3 4 -12
1 -19z m-3500 -560 c12 -13 24 -36 27 -53 3 -16 9 -41 12 -55 4 -14 8 -492 8
-1062 l2 -1037 -21 -5 c-28 -7 -63 0 -82 16 -24 20 -32 53 -39 156 -7 103 -12
1997 -5 2046 3 26 6 28 39 22 20 -3 46 -16 59 -28z"/>
<path d="M2978 4925 c-2 -1 -36 -5 -76 -9 -70 -6 -122 -15 -207 -38 -257 -68
-525 -291 -610 -509 -13 -32 -22 -59 -20 -59 5 0 -22 -83 -44 -131 -24 -54
-47 -142 -57 -219 -4 -30 -8 -66 -10 -80 -2 -14 -6 -72 -10 -130 -3 -58 -7
-121 -8 -140 -2 -20 -14 -54 -28 -76 -22 -34 -68 -128 -108 -219 -11 -24 -43
-105 -63 -160 -68 -184 -107 -472 -78 -581 5 -22 12 -50 14 -64 17 -94 134
-244 222 -283 l40 -18 1 -117 c1 -107 10 -261 19 -322 2 -14 6 -42 9 -63 12
-81 68 -218 130 -315 46 -74 139 -163 235 -226 172 -114 318 -157 515 -151 67
1 132 5 145 9 159 38 278 117 368 244 l45 63 43 -123 42 -123 290 -3 289 -2
-1 85 -1 85 31 1 c16 1 41 1 55 0 54 -3 54 -1 54 252 l0 234 40 -28 c21 -16
44 -29 51 -29 10 0 12 -70 12 -297 l-1 -298 460 -3 461 -2 -2 81 c-2 91 -1 91
73 93 36 1 49 6 57 22 6 13 10 213 10 571 -1 377 3 550 10 545 51 -31 121 -77
125 -83 3 -4 5 -282 5 -618 l0 -611 425 2 425 3 0 83 c0 91 -4 86 77 83 68 -2
64 -41 62 670 -2 667 -4 748 -29 843 -24 92 -117 225 -189 271 l-43 27 33 56
c19 31 34 60 34 66 0 5 21 29 46 53 27 27 57 70 74 106 33 74 45 124 66 272 1
11 3 41 3 67 l1 48 43 -21 c23 -11 48 -24 56 -28 13 -6 15 -189 15 -1304 l-1
-1297 796 3 796 2 1 70 c1 39 2 77 3 86 1 12 11 15 47 12 28 -2 55 2 68 10 21
14 21 18 20 376 0 274 -3 364 -13 374 -9 9 -74 12 -244 14 -128 1 -239 2 -247
2 -8 1 10 12 40 25 145 62 228 107 378 207 l103 69 -1 -152 c-1 -84 -1 -366 0
-626 l0 -472 796 2 796 3 0 83 c0 89 0 89 69 83 9 -1 27 3 42 8 l25 10 0 370
c0 335 -1 372 -16 381 -10 5 -12 10 -5 10 6 0 17 2 25 5 11 4 13 -79 13 -472
l0 -478 385 0 385 0 -3 83 -2 82 32 1 c18 1 42 1 53 0 11 -1 28 4 38 11 16 12
17 46 18 483 0 424 2 466 15 425 8 -25 15 -52 17 -60 2 -8 10 -37 19 -65 9
-27 26 -84 38 -125 12 -41 29 -97 38 -125 8 -27 17 -57 18 -65 2 -8 15 -53 29
-100 23 -72 49 -158 59 -195 4 -15 44 -148 77 -258 l30 -97 402 2 402 3 0 83
c-1 92 -10 82 85 86 24 1 37 7 45 22 6 13 10 185 9 497 0 262 1 477 3 477 2 0
19 -33 38 -72 58 -124 139 -197 218 -198 36 0 103 43 113 72 4 13 9 86 10 163
1 77 4 151 7 165 2 14 8 48 12 75 4 28 9 59 11 70 6 31 25 146 31 190 3 22 12
72 20 110 8 39 17 84 20 100 3 17 9 38 14 48 5 9 8 17 5 17 -9 0 52 166 82
225 58 112 77 181 76 280 0 52 -6 81 -22 112 -49 94 -86 99 -161 21 -40 -42
-110 -156 -113 -185 -1 -4 -8 -24 -16 -43 -15 -36 -71 -194 -78 -220 -2 -8
-17 -64 -33 -125 -49 -184 -67 -279 -77 -415 -3 -41 -7 -76 -8 -77 -2 -2 -9 9
-16 25 -8 15 -41 67 -75 117 l-60 89 -1 1014 c0 949 -1 1015 -17 1027 -14 10
-107 13 -394 13 -208 0 -388 -4 -400 -9 -22 -8 -23 -13 -23 -119 0 -60 -3
-109 -7 -109 -5 1 -21 1 -38 0 l-30 -1 1 -470 c0 -258 -1 -470 -2 -470 0 0
-20 60 -43 133 -24 72 -46 141 -51 152 -4 11 -18 52 -31 90 -12 39 -30 95 -40
125 -168 524 -213 657 -225 666 -17 14 -783 17 -805 4 -9 -6 -12 -40 -13 -118
l0 -109 -29 -1 c-16 0 -32 -4 -36 -7 -3 -4 -6 -169 -6 -368 l-1 -362 -338 0
c-258 0 -340 3 -348 13 -12 13 -21 13 285 14 l187 0 1 42 c0 22 0 60 -1 84 -2
46 -6 43 75 46 22 0 45 4 51 8 18 12 17 734 -1 752 -12 11 -147 14 -790 14
-739 0 -776 -1 -785 -19 -6 -10 -10 -63 -10 -119 l0 -102 -30 4 c-17 3 -33 1
-36 -3 -2 -4 -4 -491 -5 -1083 l0 -1075 -57 -12 c-49 -10 -88 -24 -217 -80
-11 -5 -42 -17 -70 -27 -27 -10 -59 -23 -70 -27 -11 -5 -22 -9 -25 -9 -3 -1
-52 -16 -110 -35 -58 -18 -113 -35 -122 -37 -17 -5 -18 8 -18 164 0 127 3 171
13 174 6 2 103 3 215 3 134 -1 202 2 203 9 1 6 2 45 3 86 l1 75 57 0 c32 0 62
5 69 12 10 10 13 97 13 359 0 291 -2 347 -14 354 -8 6 -138 10 -287 10 l-273
0 0 103 0 102 88 1 c80 1 104 4 185 19 15 3 37 7 50 9 117 21 219 65 235 101
10 21 8 27 -15 45 -31 24 -7 23 -300 20 -216 -2 -243 0 -243 14 0 12 10 16 38
17 20 0 127 1 237 2 l200 2 0 84 0 85 57 0 c31 1 63 7 69 13 18 18 18 725 1
746 -11 12 -125 14 -791 15 l-779 0 -9 -22 c-5 -11 -9 -65 -8 -119 0 -81 -2
-97 -15 -96 -8 1 -24 1 -36 0 -21 -1 -21 -2 -20 -358 1 -197 0 -364 -2 -370
-2 -7 -20 -15 -40 -19 -21 -4 -43 -11 -49 -17 -15 -11 -14 -15 -18 88 -13 332
-78 530 -227 683 -89 91 -216 162 -318 177 -25 4 -47 8 -50 10 -11 7 -97 17
-276 31 -33 3 -321 7 -641 9 -470 3 -583 2 -592 -9 -6 -7 -12 -60 -12 -120
l-2 -106 -33 0 c-19 0 -34 -3 -35 -7 0 -5 -2 -476 -3 -1048 l-3 -1040 -36
-165 c-20 -91 -38 -179 -41 -197 -18 -101 -22 -20 -21 473 0 352 -4 555 -10
568 -10 20 -17 21 -550 21 -297 1 -546 -1 -553 -3 -7 -3 -19 -16 -26 -31 -10
-19 -23 -27 -45 -29 l-31 -2 0 296 c0 236 3 294 13 286 6 -6 41 -39 77 -73
l65 -62 2 -136 c1 -75 2 -139 2 -142 1 -3 207 -6 459 -5 l457 1 0 83 c0 91 -6
86 83 82 32 -1 44 3 49 17 12 30 4 435 -11 538 -22 157 -19 142 -41 231 -10
38 -21 74 -25 79 -4 6 -12 25 -18 43 -18 52 -96 164 -154 220 -121 116 -243
191 -403 247 -52 19 -95 32 -95 30 0 -3 -10 -1 -23 4 -13 5 -48 12 -78 16 -30
3 -67 9 -84 12 -29 5 -282 12 -287 8z m113 -862 c18 -15 45 -90 36 -99 -3 -4
-13 1 -21 9 -9 8 -38 26 -66 38 -44 20 -51 27 -48 48 2 15 7 29 12 32 11 8 65
-9 87 -28z m2323 -88 c27 -13 66 -59 66 -79 0 -2 -26 -4 -57 -3 l-58 2 -1 40
c0 61 1 63 50 40z m4681 -580 c0 -154 -1 -287 -3 -297 -3 -12 -17 -17 -54 -20
-27 -1 -52 0 -55 5 -2 4 -4 84 -4 178 0 95 -4 180 -10 190 -9 18 -25 19 -200
19 l-190 0 7 23 c4 12 23 57 42 99 41 91 15 83 282 83 l184 0 1 -280z m-4597
261 c8 -8 10 -152 3 -165 -7 -10 -38 -17 -101 -23 l-35 -3 -1 95 c0 52 1 99 4
103 4 9 120 3 130 -7z m4597 -1065 c0 -167 -3 -308 -7 -314 -3 -6 -12 -12 -20
-13 -7 -1 -76 -20 -153 -42 -77 -22 -156 -44 -175 -48 -19 -4 -39 -9 -45 -10
-5 -1 -27 -5 -49 -9 -21 -4 -48 -9 -60 -11 -11 -2 -41 -7 -66 -10 -25 -3 -53
-8 -64 -10 -10 -2 -26 1 -35 6 -15 7 -16 32 -15 217 1 114 2 210 3 213 0 3 96
5 211 4 120 0 213 3 217 9 3 5 6 43 7 86 l1 76 55 0 c30 0 60 4 67 8 7 5 11
30 11 67 -1 33 1 62 3 64 3 3 20 8 39 11 19 3 36 8 38 10 2 1 11 2 20 1 15 -3
16 -32 17 -305z m-6920 -501 c-1 -127 -4 -232 -7 -235 -3 -3 -24 -8 -47 -11
l-41 -6 6 54 c5 44 49 289 58 323 2 6 6 31 11 58 4 26 10 47 14 47 4 0 6 -104
6 -230z"/>
</g>
</svg>
